<svg xmlns="http://www.w3.org/2000/svg" version="1.1" xmlns:xlink="http://www.w3.org/1999/xlink" xmlns:svgjs="http://svgjs.dev/svgjs" width="1000" height="186" viewBox="0 0 1000 186"><g transform="matrix(1,0,0,1,-0.6060606060606801,-0.43594821369305237)"><svg viewBox="0 0 396 74" data-background-color="#673ab7" preserveAspectRatio="xMidYMid meet" height="186" width="1000" xmlns="http://www.w3.org/2000/svg" xmlns:xlink="http://www.w3.org/1999/xlink"><defs></defs><g id="tight-bounds" transform="matrix(1,0,0,1,0.24000000000003752,0.17344176243702236)"><svg viewBox="0 0 395.5199999999999 73.65311647512594" height="73.65311647512594" width="395.5199999999999"><g><svg viewBox="0 0 466.7537000000001 86.91814480000001" height="73.65311647512594" width="395.5199999999999"><g><svg viewBox="0 0 466.7537000000001 86.91814480000001" height="86.91814480000001" width="466.7537000000001"><g><svg viewBox="0 0 466.7537000000001 86.91814480000001" height="86.91814480000001" width="466.7537000000001"><g><svg viewBox="0 0 466.7537000000001 57.1963" height="57.1963" width="466.7537000000001"><g><svg><g></g><g></g></svg></g><g><svg><g><svg></svg></g><g></g></svg></g><g id="text-0"><svg viewBox="0 0 466.7537000000001 57.1963" height="57.1963" width="466.7537000000001"><g transform="matrix(1,0,0,1,0,10.948150000000002)"><svg width="131.45000000000002" viewBox="1.7999999523162842 -34.150001525878906 131.44000244140625 35.30000305175781" height="35.3" data-palette-color="#673ab7"><path d="M1.8-33.4L15.95-33.4Q22-33.4 24.73-31.45 27.45-29.5 27.45-25.9 27.45-22.3 25.53-20.18 23.6-18.05 19.9-17.65L19.9-17.65Q24.75-16.8 26.95-14.78 29.15-12.75 29.15-9.05L29.15-9.05Q29.15-4.45 25.35-2.23 21.55 0 15.5 0L15.5 0 2.4 0 2.4-1.2 6.15-1.65 6.15-31.75 1.8-32.2 1.8-33.4ZM18.05-16.2L18.05-16.2Q16.15-16.6 14.35-16.6 12.55-16.6 11.4-16.55L11.4-16.55 11.4-1.4Q12.65-1.05 13.68-1.05 14.7-1.05 16.13-1.2 17.55-1.35 19.43-2.02 21.3-2.7 22.55-4.65 23.8-6.6 23.8-9.45L23.8-9.45Q23.8-15 18.05-16.2ZM14.65-32.05L11.4-32.05 11.4-18.05 13.5-18.05Q21.95-18.05 21.95-25.75L21.95-25.75Q21.95-29.1 20.23-30.58 18.5-32.05 14.65-32.05L14.65-32.05ZM65.95-1.2L65.95 0 52.45 0 52.45-1.05 56.35-1.65 51.95-13.15 40.7-13.15 36.5-2.5 40.95-1.2 40.95 0 30.5 0 30.5-1.2 34.3-2.5 46.6-33.4 49.05-33.4 62.1-1.65 65.95-1.2ZM41.4-15L51.2-15 46.3-27.15 41.4-15ZM76.14-31.95L76.14-17.6 78.64-17.6Q87.59-17.6 87.59-25.1L87.59-25.1Q87.59-28.8 85.84-30.48 84.09-32.15 80.25-32.15L80.25-32.15Q78.75-32.15 76.14-31.95L76.14-31.95ZM73.5-33.5L76.05-33.5 81.75-33.65Q93.09-33.65 93.09-25.1L93.09-25.1Q93.09-21.4 90.57-19.03 88.05-16.65 84.05-16.65L84.05-16.65Q83.69-16.65 82.8-16.75L82.8-16.75 82.8-16.65Q88.14-15.9 90.17-13.18 92.19-10.45 92.19-4.85L92.19-4.85Q92.19-1.35 93.5-0.8L93.5-0.8Q94.09-0.4 95.17-0.4 96.25-0.4 97.94-1.05L97.94-1.05 97.94 0.2Q95.3 1.15 93.09 1.15L93.09 1.15Q88.19 1.15 87.05-3.05L87.05-3.05Q86.75-4.15 86.72-6.15 86.69-8.15 86.55-9.7 86.39-11.25 85.84-12.8L85.84-12.8Q84.59-16.15 78.94-16.15L78.94-16.15 76.14-16.15 76.14-1.45 80-1.1 80 0 67.25 0 67.25-1.05 71-1.45 71-31.85 66.64-32.35 66.64-33.65Q69.84-33.5 73.5-33.5L73.5-33.5ZM133.24-16.8Q133.24-9.3 128.69-4.38 124.14 0.55 116.49 0.55 108.84 0.55 104.27-4.38 99.69-9.3 99.69-16.8 99.69-24.3 104.27-29.23 108.84-34.15 116.49-34.15 124.14-34.15 128.69-29.23 133.24-24.3 133.24-16.8ZM116.54-1L116.54-1Q127.14-1 127.14-16.8L127.14-16.8Q127.14-24.4 124.72-28.5 122.29-32.6 116.49-32.6 110.69-32.6 108.24-28.53 105.79-24.45 105.79-16.8L105.79-16.8Q105.79-1 116.54-1Z" opacity="1" transform="matrix(1,0,0,1,0,0)" fill="#673ab7" class="undefined-s-0"></path></svg></g><g><svg xmlns="http://www.w3.org/2000/svg" version="1.1" data-icon="circle-check" viewBox="0 0 32 32" x="144.95370000000003" y="0" height="57.1963" width="57.1963" class="icon-x-0" data-fill-palette-color="accent" id="x-0"><path d="M16 0c-8.837 0-16 7.163-16 16s7.163 16 16 16 16-7.163 16-16-7.163-16-16-16z m6.906 8.906l2.188 2-12 13.281-6.188-6.188 2.094-2.094 3.906 3.906 10-10.906z" fill="#ffd739" data-fill-palette-color="accent"></path></svg></g><g transform="matrix(1,0,0,1,215.65370000000004,10.898149999999994)"><svg width="251.10000000000002" viewBox="1.0499999523162842 -34.20000076293945 251.0800018310547 34.79999923706055" height="34.800000000000004" data-palette-color="#673ab7"><path d="M30.25-33.35L30.25-25.8 28.75-25.8 27.05-31.55 18.2-31.65 18.2-1.65 22.85-1.2 22.85 0 8.4 0 8.4-1.2 13.05-1.65 13.05-31.65 4.2-31.55 2.5-25.8 1.05-25.8 1.05-33.35 15.65-33.45 30.25-33.35ZM67.05-16.8Q67.05-9.3 62.5-4.38 57.95 0.55 50.3 0.55 42.65 0.55 38.07-4.38 33.5-9.3 33.5-16.8 33.5-24.3 38.07-29.23 42.65-34.15 50.3-34.15 57.95-34.15 62.5-29.23 67.05-24.3 67.05-16.8ZM50.35-1L50.35-1Q60.95-1 60.95-16.8L60.95-16.8Q60.95-24.4 58.52-28.5 56.1-32.6 50.3-32.6 44.5-32.6 42.05-28.53 39.6-24.45 39.6-16.8L39.6-16.8Q39.6-1 50.35-1ZM94.19-30.65Q92-31.5 91-31.6 90-31.7 88.57-31.78 87.14-31.85 85.22-31.85 83.3-31.85 80.64-31.6L80.64-31.6 80.64-1.75 86.14-1.6Q91.3-1.8 93.75-2.9L93.75-2.9Q100.39-5.95 100.44-16.7L100.44-16.7Q100.44-20.9 99.5-23.9 98.55-26.9 97.47-28.35 96.39-29.8 94.19-30.65ZM77.19-33.35L77.19-33.35 86.89-33.6Q91.34-33.6 94.69-32.85 98.05-32.1 100.84-30.3L100.84-30.3Q106.55-26.65 106.55-16.75L106.55-16.75Q106.55 0 86.14 0L86.14 0 71.05 0 71.05-1.3 75.39-1.7 75.39-31.65 71.05-32.2 71.05-33.5Q74.09-33.35 77.19-33.35ZM145.24-16.8Q145.24-9.3 140.69-4.38 136.14 0.55 128.49 0.55 120.84 0.55 116.27-4.38 111.69-9.3 111.69-16.8 111.69-24.3 116.27-29.23 120.84-34.15 128.49-34.15 136.14-34.15 140.69-29.23 145.24-24.3 145.24-16.8ZM128.54-1L128.54-1Q139.14-1 139.14-16.8L139.14-16.8Q139.14-24.4 136.72-28.5 134.29-32.6 128.49-32.6 122.69-32.6 120.24-28.53 117.79-24.45 117.79-16.8L117.79-16.8Q117.79-1 128.54-1ZM149.24-32.2L149.24-33.4 163.09-33.4 163.09-32.2 158.74-31.75 158.74-1.6 171.34-1.75 173.69-7.45 174.99-7.45 174.39 0 149.24 0 149.24-1.2 153.59-1.65 153.59-31.75 149.24-32.2ZM191.49-1.2L191.49 0 177.64 0 177.64-1.2 181.99-1.65 181.99-31.75 177.64-32.2 177.64-33.4 191.49-33.4 191.49-32.2 187.14-31.75 187.14-1.65 191.49-1.2ZM216.19-26.05L214.49-31.75Q211.79-32.7 208.94-32.7 206.09-32.7 203.94-31.08 201.79-29.45 201.79-26.25L201.79-26.25Q201.79-23.15 204.44-21.5L204.44-21.5Q205.89-20.6 206.81-20.2 207.74-19.8 209.51-19.15 211.29-18.5 211.94-18.23 212.59-17.95 213.86-17.38 215.14-16.8 215.76-16.35 216.39-15.9 217.29-15.1 218.19-14.3 218.64-13.5L218.64-13.5Q219.74-11.45 219.74-9.05L219.74-9.05Q219.74-4.8 216.29-2.1 212.84 0.6 207.34 0.6L207.34 0.6Q203.14 0.6 199.49-0.8L199.49-0.8Q197.69-1.45 196.54-2.6 195.39-3.75 195.39-5.25L195.39-5.25Q195.39-7.7 198.94-8.6L198.94-8.6Q199.49-5.6 201.04-3.75 202.59-1.9 204.26-1.3 205.94-0.7 208.36-0.7 210.79-0.7 212.94-2.27 215.09-3.85 215.09-7.45L215.09-7.45Q215.09-10.2 212.59-11.95L212.59-11.95Q210.59-13.3 207.66-14.5 204.74-15.7 203.74-16.13 202.74-16.55 201.16-17.48 199.59-18.4 198.84-19.3L198.84-19.3Q196.89-21.65 196.89-24.7L196.89-24.7Q196.89-29.4 200.24-31.8 203.59-34.2 209.49-34.2L209.49-34.2Q213.04-34.2 217.74-33.4L217.74-33.4 217.74-26.05 216.19-26.05ZM252.13-33.35L252.13-25.8 250.63-25.8 248.93-31.55 240.08-31.65 240.08-1.65 244.73-1.2 244.73 0 230.28 0 230.28-1.2 234.93-1.65 234.93-31.65 226.08-31.55 224.38-25.8 222.93-25.8 222.93-33.35 237.53-33.45 252.13-33.35Z" opacity="1" transform="matrix(1,0,0,1,0,0)" fill="#673ab7" class="undefined-s-1"></path></svg></g></svg></g></svg></g><g transform="matrix(1,0,0,1,196.5492132390746,65.41174480000001)"><svg viewBox="0 0 73.6552735218509 21.506400000000003" height="21.506400000000003" width="73.6552735218509"><g transform="matrix(1,0,0,1,0,0)"><svg width="73.6552735218509" viewBox="2.319999933242798 -37.5 130.08999633789062 37.9900016784668" height="21.506400000000003" data-palette-color="#ffd739"><path d="M2.32-13.09L2.32-13.43Q2.32-19.51 5.2-23.21 8.08-26.9 12.74-26.9L12.74-26.9Q17.38-26.9 20.09-23.73L20.09-23.73 20.09-37.5 24.61-37.5 24.61 0 20.46 0 20.24-2.83Q17.53 0.49 12.7 0.49L12.7 0.49Q8.11 0.49 5.21-3.27 2.32-7.03 2.32-13.09L2.32-13.09ZM6.84-12.92L6.84-12.92Q6.84-8.42 8.69-5.88 10.55-3.34 13.82-3.34L13.82-3.34Q18.12-3.34 20.09-7.2L20.09-7.2 20.09-19.34Q18.07-23.07 13.87-23.07L13.87-23.07Q10.55-23.07 8.69-20.51 6.84-17.94 6.84-12.92ZM30.42-13.13L30.42-13.45Q30.42-17.33 31.94-20.43 33.47-23.54 36.19-25.22 38.91-26.9 42.4-26.9L42.4-26.9Q47.8-26.9 51.13-23.17 54.47-19.43 54.47-13.23L54.47-13.23 54.47-12.92Q54.47-9.06 52.99-5.99 51.51-2.93 48.76-1.22 46.02 0.49 42.45 0.49L42.45 0.49Q37.08 0.49 33.75-3.25 30.42-6.98 30.42-13.13L30.42-13.13ZM34.96-12.92L34.96-12.92Q34.96-8.52 37-5.86 39.04-3.2 42.45-3.2L42.45-3.2Q45.9-3.2 47.92-5.9 49.95-8.59 49.95-13.45L49.95-13.45Q49.95-17.8 47.89-20.5 45.82-23.19 42.4-23.19L42.4-23.19Q39.06-23.19 37.01-20.53 34.96-17.87 34.96-12.92ZM60.13-26.42L64.4-26.42 64.55-23.1Q67.57-26.9 72.46-26.9L72.46-26.9Q80.83-26.9 80.9-17.46L80.9-17.46 80.9 0 76.39 0 76.39-17.48Q76.36-20.34 75.08-21.7 73.8-23.07 71.09-23.07L71.09-23.07Q68.89-23.07 67.23-21.9 65.57-20.73 64.64-18.82L64.64-18.82 64.64 0 60.13 0 60.13-26.42ZM98.67 0.49L98.67 0.49Q93.3 0.49 89.93-3.04 86.56-6.57 86.56-12.48L86.56-12.48 86.56-13.31Q86.56-17.24 88.07-20.32 89.57-23.41 92.27-25.16 94.96-26.9 98.11-26.9L98.11-26.9Q103.26-26.9 106.12-23.51 108.98-20.12 108.98-13.79L108.98-13.79 108.98-11.91 91.08-11.91Q91.18-8.01 93.36-5.6 95.55-3.2 98.92-3.2L98.92-3.2Q101.31-3.2 102.97-4.17 104.63-5.15 105.88-6.76L105.88-6.76 108.64-4.61Q105.31 0.49 98.67 0.49ZM98.11-23.19L98.11-23.19Q95.38-23.19 93.52-21.2 91.67-19.21 91.23-15.63L91.23-15.63 104.46-15.63 104.46-15.97Q104.26-19.41 102.6-21.3 100.94-23.19 98.11-23.19ZM131.97-35.55L131.63-10.03 127.55-10.03 127.23-35.55 131.97-35.55ZM127.06-2.27L127.06-2.27Q127.06-3.37 127.73-4.11 128.41-4.86 129.72-4.86 131.04-4.86 131.73-4.11 132.41-3.37 132.41-2.27 132.41-1.17 131.73-0.45 131.04 0.27 129.72 0.27 128.41 0.27 127.73-0.45 127.06-1.17 127.06-2.27Z" opacity="1" transform="matrix(1,0,0,1,0,0)" fill="#ffd739" class="undefined-text-1" data-fill-palette-color="secondary" id="text-1"></path></svg></g></svg></g></svg></g></svg></g><g></g></svg></g></svg><rect width="395.5199999999999" height="73.65311647512594" fill="none" stroke="none" visibility="hidden"></rect></g></svg></g></svg>